<svg xmlns="http://www.w3.org/2000/svg" width="32" height="28" viewBox="0 0 63.695 61.615"><path fill="#fff" d="M57.572 35.067a6.112 6.112 0 0 0-5.205 2.91l-6.821-2.252a13.664 13.664 0 0 0-1.292-9.388l5.615-3.78a6.096 6.096 0 0 0 4.142 1.623 6.124 6.124 0 1 0-6.123-6.123c0 .756.144 1.477.394 2.144l-5.615 3.782a13.716 13.716 0 0 0-8.934-4.83l.096-7.081a6.121 6.121 0 0 0 4.701-5.951 6.123 6.123 0 0 0-12.246.002 6.12 6.12 0 0 0 4.705 5.952l-.096 7.041c-5.697.507-10.387 4.489-11.945 9.814l-6.719-1.233a6.117 6.117 0 0 0-6.106-5.801 6.123 6.123 0 1 0 5.599 8.595l6.719 1.233a14.01 14.01 0 0 0-.054 1.069c0 4.405 2.082 8.315 5.306 10.831l-3.787 6.066a6.118 6.118 0 0 0-8.07 5.802 6.123 6.123 0 1 0 10.48-4.3l3.786-6.065a13.653 13.653 0 0 0 6.025 1.406c5.581 0 10.374-3.333 12.525-8.112l6.823 2.252a6.347 6.347 0 0 0-.026.518 6.123 6.123 0 1 0 12.246 0 6.125 6.125 0 0 0-6.123-6.124m-3.561-20.292a3.286 3.286 0 0 1 3.283 3.283 3.286 3.286 0 0 1-3.283 3.282 3.286 3.286 0 0 1-3.283-3.282 3.286 3.286 0 0 1 3.283-3.283M6.123 31.301a3.287 3.287 0 0 1-3.284-3.282 3.287 3.287 0 0 1 3.284-3.283 3.286 3.286 0 0 1 3.283 3.283 3.287 3.287 0 0 1-3.283 3.282m11.836 27.475c-1.81 0-3.283-1.475-3.283-3.284s1.473-3.283 3.283-3.283 3.283 1.474 3.283 3.283a3.287 3.287 0 0 1-3.283 3.284M29.124 6.123a3.288 3.288 0 0 1 3.283-3.283 3.288 3.288 0 0 1 3.283 3.283 3.287 3.287 0 0 1-3.283 3.284 3.287 3.287 0 0 1-3.283-3.284m3.003 37.569c-6.01 0-10.9-4.891-10.9-10.899 0-6.01 4.89-10.9 10.9-10.9 6.011 0 10.9 4.89 10.9 10.9s-4.889 10.899-10.9 10.899m25.445.782a3.288 3.288 0 0 1-3.283-3.283 3.285 3.285 0 0 1 3.283-3.282 3.286 3.286 0 0 1 3.283 3.282 3.288 3.288 0 0 1-3.283 3.283"/></svg>